<svg width="96" height="96" viewBox="0 0 96 96" fill="none" xmlns="http://www.w3.org/2000/svg">
<g clip-path="url(#clip0_683_11783)">
<path d="M95.8937 47.8463L86.8739 22.1472C86.5646 21.2656 85.6533 20.7466 84.737 20.9296L75.3426 22.8089L58.8303 17.897C56.447 17.1879 53.8354 16.7662 50.8905 18.4666L47.9477 20.1657L45.0048 18.4666C42.0597 16.7662 39.448 17.188 37.0649 17.8972L20.6114 22.7918L12.0688 20.5385C11.1399 20.2936 10.1754 20.7904 9.83622 21.6895L0.120983 47.4394C-0.203202 48.2985 0.142545 49.266 0.937726 49.725L9.0146 54.3881C8.4416 55.7207 8.33173 57.2 8.7146 58.629C9.16479 60.3093 10.2384 61.7114 11.7375 62.5769C12.9254 63.2628 14.243 63.5292 15.5165 63.4233C15.5692 65.6161 16.7289 67.732 18.7632 68.9067C20.6521 69.9974 22.8666 70.0289 24.7142 69.187C25.242 70.4656 26.1792 71.5864 27.4671 72.3299C28.9661 73.1954 30.7172 73.4241 32.3977 72.9737C32.8916 72.8414 33.3617 72.6552 33.8008 72.42C34.359 73.6225 35.268 74.6215 36.4351 75.2951C37.4563 75.8846 38.5721 76.1648 39.674 76.1648C41.2338 76.1646 42.7647 75.6023 43.958 74.5628L49.6579 77.8536C50.6786 78.4429 51.7946 78.723 52.8964 78.7228C55.1445 78.7228 57.3339 77.5571 58.5363 75.4744C59.034 74.6123 59.3113 73.6825 59.3853 72.7504C60.7423 73.3594 62.2578 73.4815 63.7205 73.0898C65.4008 72.6394 66.803 71.5658 67.6684 70.0666C68.2649 69.0334 68.5444 67.903 68.5377 66.7883C71.0406 67.0842 73.6018 65.9028 74.94 63.5847C75.4525 62.6971 75.7313 61.7371 75.7952 60.7771C78.6881 61.7998 81.9992 60.6489 83.588 57.8973C84.2773 56.7035 84.5435 55.3796 84.4336 54.1003L94.7821 50.2228C95.7377 49.8649 96.2316 48.8087 95.8937 47.8463ZM13.6126 59.3296C12.9809 58.965 12.5279 58.3715 12.3369 57.6585C12.1456 56.9456 12.2414 56.2052 12.6063 55.5733L15.2242 51.0388C15.5889 50.4072 16.1823 49.954 16.8954 49.7631C17.6082 49.572 18.3488 49.6679 18.9803 50.0325C20.2913 50.7895 20.7438 52.4725 19.9891 53.7848L17.3673 58.3256C17.3671 58.326 17.3669 58.3262 17.3667 58.3265C16.6077 59.6366 14.9238 60.0866 13.6126 59.3296ZM24.3945 64.6527C23.6363 65.9654 21.952 66.4171 20.6384 65.6592C19.3253 64.9012 18.874 63.2161 19.6317 61.9033L20.6121 60.2053C20.6123 60.2049 20.6125 60.2047 20.6127 60.2045L23.2366 55.6599C23.2367 55.6596 23.2371 55.6592 23.2373 55.6588L23.2382 55.6569C23.2384 55.6567 23.2384 55.6567 23.2386 55.6566L25.5533 51.6471C25.918 51.0154 26.5114 50.5624 27.2243 50.3713C27.9375 50.1803 28.6776 50.2761 29.3094 50.641C29.9411 51.0056 30.3943 51.5991 30.5854 52.312C30.7764 53.0248 30.6808 53.7653 30.3159 54.3969L29.6258 55.5921C29.6244 55.5941 29.6233 55.5962 29.622 55.5982C29.6218 55.5984 29.6218 55.5988 29.6216 55.599L25.0885 63.4509C25.0885 63.4511 25.0883 63.4511 25.0883 63.4512L25.0879 63.4516C25.0877 63.4522 25.0872 63.4529 25.087 63.4535L24.3945 64.6527ZM33.0984 68.0761C32.7337 68.7076 32.1405 69.1606 31.4274 69.3516C30.7142 69.5427 29.9737 69.4469 29.3423 69.0822C28.0307 68.3249 27.5788 66.6425 28.3337 65.33L28.3356 65.3268C28.3358 65.3266 28.3358 65.3264 28.3359 65.3264C28.3363 65.3259 28.3365 65.3251 28.3369 65.3244L32.8687 57.4747C32.8691 57.4742 32.8695 57.4738 32.8697 57.4732C33.6279 56.1602 35.3128 55.7087 36.6258 56.4669C37.2575 56.8316 37.7105 57.425 37.9017 58.1379C38.0928 58.8508 37.9972 59.5912 37.6323 60.2229L36.6748 61.8815C36.6746 61.8817 36.6744 61.8821 36.6742 61.8823L34.0565 66.4162C34.0565 66.4163 34.0563 66.4165 34.0562 66.4167C34.055 66.4186 34.0539 66.4205 34.0528 66.4223L33.0984 68.0761ZM38.3105 72.0477C37.6788 71.683 37.2256 71.0896 37.0346 70.3767C36.8435 69.6638 36.9391 68.9234 37.304 68.2915L39.922 63.7571C40.6803 62.4442 42.3644 61.9925 43.6782 62.7506C44.9911 63.5086 45.4426 65.1937 44.6847 66.5067L42.0667 71.0414C41.3086 72.3544 39.6235 72.8059 38.3105 72.0477ZM55.2892 73.5998C54.531 74.913 52.8456 75.364 51.5331 74.6063L46.1372 71.491L47.9322 68.3819C48.2642 67.8066 48.4977 67.201 48.6387 66.5849L54.2831 69.8438C54.2833 69.8438 54.2833 69.844 54.2835 69.844C54.2837 69.844 54.2837 69.844 54.2839 69.8442L54.2891 69.8472C55.5971 70.6071 56.0462 72.289 55.2892 73.5998ZM83.055 50.6125C82.5602 49.9862 81.9414 49.4413 81.2092 49.0187C80.5237 48.6229 78.0315 47.1252 73.5906 44.4398C72.7045 43.904 71.5517 44.1878 71.0159 45.0741C70.4802 45.9603 70.7641 47.113 71.6502 47.6487C76.1132 50.3473 78.6266 51.8578 79.3342 52.2664C80.6473 53.0244 81.0988 54.7095 80.3407 56.0225C79.5825 57.3358 77.8971 57.7871 76.5846 57.0292L72.5674 54.7097C72.5663 54.7091 72.565 54.7084 72.5639 54.7076L72.5631 54.7072L57.6416 46.0924C56.7446 45.5744 55.598 45.8819 55.0804 46.7787C54.5625 47.6755 54.8698 48.8222 55.7666 49.3399L70.6866 57.954C70.6868 57.9542 70.6872 57.9543 70.6874 57.9545C70.6877 57.9547 70.6877 57.9547 70.6881 57.9549L70.6921 57.9572C72.0006 58.7167 72.4495 60.3991 71.6927 61.7101C70.9345 63.0232 69.25 63.4747 67.9368 62.7166L65.2964 61.1923C65.2947 61.1913 65.2932 61.1904 65.2917 61.1894L65.2912 61.1893L52.1918 53.6263C51.2946 53.1083 50.1482 53.4158 49.6305 54.3126C49.1127 55.2094 49.42 56.3561 50.3168 56.8738L63.415 64.436C63.4152 64.4362 63.4154 64.4362 63.4156 64.4364C64.7279 65.1946 65.1788 66.8793 64.4212 68.1921C64.0565 68.8238 63.4631 69.2768 62.7502 69.4679C62.0375 69.6589 61.2967 69.5633 60.665 69.1986L56.1656 66.6008C56.1634 66.5995 56.1615 66.5984 56.159 66.5969L56.1587 66.5967L47.8956 61.826C47.3457 60.8921 46.5565 60.0828 45.5528 59.5033C44.3556 58.8121 43.0287 58.5461 41.7457 58.6586C41.7295 58.161 41.6558 57.6611 41.5235 57.1672C41.0733 55.4869 39.9995 54.0848 38.5004 53.2193C37.2123 52.4756 35.772 52.2244 34.4013 52.4068C34.3663 52.0504 34.3018 51.6943 34.2071 51.3411C33.7569 49.6607 32.6831 48.2586 31.1839 47.3929C28.4342 45.8052 24.9945 46.4622 22.9999 48.7902C22.4646 47.9899 21.7433 47.2977 20.8551 46.7849C19.3561 45.9194 17.6047 45.6904 15.9245 46.1408C14.2439 46.591 12.842 47.6646 11.9763 49.1639L10.8487 51.117L4.1912 47.2735L12.7475 24.5957L20.1633 26.5517C20.4963 26.6395 20.8465 26.6338 21.1761 26.536L38.1339 21.4913C40.1069 20.9044 41.4873 20.7661 43.1294 21.7141L44.1972 22.3307L37.6287 26.1231C34.5024 27.9281 33.4275 31.9402 35.2325 35.0668C36.9787 38.0913 40.7776 39.1466 44.0689 37.5204C45.8386 36.6463 48.4125 35.489 50.3526 34.7503C51.769 35.6036 54.9454 37.5288 57.2132 38.9032C58.0995 39.4402 59.2522 39.1571 59.7884 38.2715C60.3251 37.3859 60.0423 36.2328 59.157 35.6962C56.9763 34.3745 55.0708 33.2199 53.7081 32.3959C53.0252 31.983 52.4783 31.6528 52.1012 31.4257C51.2708 30.9264 51.0737 30.8077 50.5463 30.8077C50.3361 30.8077 50.1276 30.843 49.929 30.9122C47.7113 31.6852 44.4758 33.1367 42.4083 34.158C40.9132 34.896 39.2247 34.4808 38.4802 33.1914C37.709 31.8555 38.1682 30.1414 39.5039 29.3702L52.7655 21.7139C54.4076 20.7657 55.7884 20.9043 57.761 21.4911L74.719 26.5358C75.012 26.623 75.3218 26.6372 75.6214 26.5772L83.8749 24.9261L91.7472 47.3554L83.055 50.6125Z" fill="black"/>
<path d="M65.4031 39.7988H65.4016C64.3662 39.7988 63.5273 40.6383 63.5273 41.6738C63.5273 42.7094 64.3675 43.5488 65.4031 43.5488C66.4387 43.5488 67.2781 42.7094 67.2781 41.6738C67.2781 40.6383 66.4385 39.7988 65.4031 39.7988Z" fill="black"/>
</g>
<defs>
<clipPath id="clip0_683_11783">
<rect width="96" height="96" fill="white"/>
</clipPath>
</defs>
</svg>
