<svg width="25" height="25" viewBox="0 0 25 25" fill="none" xmlns="http://www.w3.org/2000/svg">
<g clip-path="url(#clip0_688_7783)">
<path d="M15.6694 13.5261L13.6593 15.543C12.8442 16.3609 11.41 16.3786 10.5773 15.543L8.56716 13.5261L1.34766 20.7691C1.61639 20.8933 1.91269 20.9675 2.22769 20.9675H22.0089C22.3239 20.9675 22.6201 20.8934 22.8888 20.7691L15.6694 13.5261Z" fill="black"/>
<path d="M22.0088 4.09253H2.22759C1.91259 4.09253 1.6163 4.16669 1.34766 4.29095L9.0622 12.0311C9.06272 12.0316 9.06333 12.0317 9.06384 12.0322C9.06436 12.0327 9.06445 12.0334 9.06445 12.0334L11.5729 14.5502C11.8393 14.8166 12.3972 14.8166 12.6637 14.5502L15.1716 12.0339C15.1716 12.0339 15.1722 12.0327 15.1727 12.0322C15.1727 12.0322 15.1738 12.0316 15.1743 12.0311L22.8887 4.2909C22.62 4.16659 22.3238 4.09253 22.0088 4.09253Z" fill="black"/>
<path d="M0.343484 5.27441C0.204453 5.55557 0.119141 5.86766 0.119141 6.20198V18.8582C0.119141 19.1925 0.204359 19.5046 0.343437 19.7858L7.57545 12.5303L0.343484 5.27441Z" fill="black"/>
<path d="M23.894 5.27417L16.6621 12.5302L23.894 19.7857C24.0331 19.5046 24.1184 19.1925 24.1184 18.8581V6.20183C24.1184 5.86742 24.0331 5.55533 23.894 5.27417Z" fill="black"/>
</g>
<defs>
<clipPath id="clip0_688_7783">
<rect width="24" height="24" fill="white" transform="translate(0.119141 0.530029)"/>
</clipPath>
</defs>
</svg>
