<svg width="34" height="34" viewBox="0 0 34 34" fill="none" xmlns="http://www.w3.org/2000/svg">
<path d="M7.7832 22.0632C9.38148 23.0882 11.2838 23.6876 13.3251 23.6876C20.0309 23.6876 23.8268 18.0241 23.6009 12.9339C24.3045 12.4214 24.9212 11.7873 25.4077 11.0664C24.7562 11.353 24.0613 11.5441 23.3317 11.631C24.0787 11.188 24.652 10.4757 24.9212 9.63315C24.2263 10.0501 23.4533 10.3454 22.6281 10.5105C21.9679 9.80687 21.0298 9.37256 19.9874 9.37256C17.6508 9.37256 15.9396 11.5528 16.4695 13.8112C13.464 13.6636 10.806 12.2217 9.01666 10.0327C8.06985 11.6571 8.52154 13.7852 10.1372 14.8623C9.54652 14.8449 8.9906 14.6799 8.49548 14.4106C8.46073 16.0871 9.65944 17.6506 11.3967 17.998C10.8842 18.137 10.3283 18.1718 9.76368 18.0588C10.224 19.4921 11.5617 20.5431 13.1426 20.5692C11.6225 21.7592 9.71156 22.2891 7.79189 22.0632H7.7832Z" fill="#222221"/>
</svg>
