<svg width="25" height="25" viewBox="0 0 25 25" fill="none" xmlns="http://www.w3.org/2000/svg">
<g clip-path="url(#clip0_688_7782)">
<path d="M20.0341 13.558C19.6461 13.068 19.7571 12.85 20.0341 12.412C20.0391 12.407 23.2421 7.98103 23.5721 6.48003L23.5741 6.47903C23.7381 5.93203 23.5741 5.53003 22.7811 5.53003H20.1571C19.4891 5.53003 19.1811 5.87503 19.0161 6.26103C19.0161 6.26103 17.6801 9.45903 15.7901 11.532C15.1801 12.131 14.8981 12.323 14.5651 12.323C14.4011 12.323 14.1461 12.131 14.1461 11.584V6.47903C14.1461 5.82303 13.9591 5.53003 13.4061 5.53003H9.28014C8.86114 5.53003 8.61214 5.83603 8.61214 6.12103C8.61214 6.74303 9.55714 6.88603 9.65514 8.63603V12.433C9.65514 13.265 9.50414 13.418 9.16914 13.418C8.27714 13.418 6.11214 10.207 4.82914 6.53203C4.57014 5.81903 4.31714 5.53103 3.64414 5.53103H1.01914C0.270141 5.53103 0.119141 5.87603 0.119141 6.26203C0.119141 6.94403 1.01114 10.335 4.26714 14.815C6.43714 17.873 9.49314 19.53 12.2731 19.53C13.9441 19.53 14.1481 19.162 14.1481 18.529C14.1481 15.607 13.9971 15.331 14.8341 15.331C15.2221 15.331 15.8901 15.523 17.4501 16.998C19.2331 18.747 19.5261 19.53 20.5241 19.53H23.1481C23.8961 19.53 24.2751 19.162 24.0571 18.436C23.5581 16.909 20.1861 13.768 20.0341 13.558Z" fill="black"/>
</g>
<defs>
<clipPath id="clip0_688_7782">
<rect width="24" height="24" fill="white" transform="translate(0.119141 0.530029)"/>
</clipPath>
</defs>
</svg>
