<svg width="39" height="39" viewBox="0 0 39 39" fill="none" xmlns="http://www.w3.org/2000/svg">
<g clip-path="url(#clip0_308_1104)">
<path d="M12.2266 21.4756H13.4819V27.8192H14.6957V21.4756H15.9511V20.3982H12.2266V21.4756Z" fill="black"/>
<path d="M18.4218 26.5017C18.3195 26.6199 18.2098 26.7174 18.0867 26.7942C17.966 26.8722 17.8649 26.91 17.7857 26.91C17.6857 26.91 17.6114 26.8808 17.5638 26.8235C17.52 26.765 17.498 26.6723 17.498 26.5419V22.3421H16.4219V26.9198C16.4219 27.2464 16.4865 27.4889 16.6108 27.6522C16.7387 27.8168 16.924 27.896 17.1738 27.896C17.3749 27.896 17.5833 27.8387 17.8003 27.7217C18.016 27.6071 18.222 27.4365 18.4218 27.2147V27.8155H19.498V22.3397H18.4218V26.5017Z" fill="black"/>
<path d="M22.36 22.2763C22.193 22.2763 22.0273 22.319 21.8628 22.4067C21.7007 22.492 21.5483 22.62 21.4008 22.7882V20.3982H20.3125V27.8204H21.4008V27.3999C21.541 27.5681 21.6958 27.6912 21.8603 27.7704C22.0248 27.8509 22.2113 27.8887 22.4234 27.8887C22.7427 27.8887 22.9889 27.7875 23.1546 27.5803C23.3228 27.3731 23.4081 27.077 23.4081 26.6894V23.6511C23.4081 23.2026 23.3204 22.8613 23.1376 22.6273C22.9608 22.3933 22.7013 22.2763 22.36 22.2763ZM22.3027 26.5359C22.3027 26.7126 22.2698 26.8369 22.2077 26.9124C22.1455 26.9904 22.0492 27.0282 21.9176 27.0282C21.8262 27.0282 21.7409 27.0087 21.658 26.9685C21.5751 26.9307 21.4898 26.8625 21.4021 26.7759V23.3647C21.4764 23.2891 21.5495 23.233 21.6239 23.1977C21.6994 23.1611 21.7738 23.1453 21.8518 23.1453C21.9956 23.1453 22.1089 23.1928 22.1882 23.2879C22.2649 23.3829 22.3027 23.5243 22.3027 23.7083V26.5359Z" fill="black"/>
<path d="M19.3434 14.8188C19.508 14.8188 19.6372 14.7725 19.7347 14.6823C19.8309 14.5884 19.8797 14.4605 19.8797 14.3008V11.0126C19.8797 10.881 19.8309 10.7738 19.731 10.6921C19.6323 10.6117 19.5031 10.5714 19.3434 10.5714C19.1947 10.5714 19.0741 10.6104 18.9827 10.6921C18.8913 10.7738 18.8438 10.881 18.8438 11.0126V14.2984C18.8438 14.4629 18.8888 14.5897 18.9742 14.6823C19.0595 14.7737 19.1813 14.8188 19.3434 14.8188Z" fill="black"/>
<path d="M19.5 0C8.73112 0 0 8.72991 0 19.5C0 30.2701 8.73112 39 19.5 39C30.2689 39 39 30.2689 39 19.5C39 8.73112 30.2689 0 19.5 0ZM22.0984 9.67931H23.3086V14.3033C23.3086 14.4458 23.3366 14.5494 23.3866 14.6128C23.4353 14.6774 23.5194 14.7091 23.6328 14.7091C23.7205 14.7091 23.8339 14.6664 23.9704 14.5823C24.1057 14.4983 24.2312 14.3898 24.3433 14.2569V9.67931H25.556V15.7109H24.3433V15.0455C24.1215 15.2904 23.8899 15.4793 23.6462 15.6061C23.4049 15.7341 23.1709 15.7987 22.9417 15.7987C22.6602 15.7987 22.4506 15.7085 22.308 15.5293C22.1666 15.3502 22.0959 15.0808 22.0959 14.7201V9.67931H22.0984ZM17.5963 11.0589C17.5963 10.5909 17.7584 10.2192 18.0863 9.94256C18.4117 9.66591 18.8516 9.52697 19.4013 9.52697C19.9022 9.52697 20.3141 9.67322 20.6347 9.96572C20.954 10.257 21.1148 10.6336 21.1148 11.0931V14.2094C21.1148 14.7249 20.9576 15.1296 20.6444 15.4233C20.3275 15.717 19.8973 15.8632 19.3452 15.8632C18.8163 15.8632 18.3909 15.7121 18.0716 15.4099C17.7547 15.1064 17.5963 14.6981 17.5963 14.1863V11.0589ZM14.2947 7.53431L15.1808 10.8018H15.2661L16.1082 7.53431H17.4964L15.9083 12.3179V15.7109H14.5433V12.4715L12.9188 7.53553C12.9175 7.53431 14.2947 7.53431 14.2947 7.53431ZM27.8314 29.4572C26.9466 30.3396 19.4963 30.3591 19.4963 30.3591C19.4963 30.3591 12.0449 30.3408 11.1589 29.4572C10.2716 28.5712 10.2704 24.2129 10.2704 24.18C10.2704 24.1544 10.2728 19.7876 11.1589 18.9028C12.0461 18.0192 19.4963 18.0083 19.4963 18.0095C19.4963 18.0095 26.9478 18.0204 27.8314 18.904C28.7186 19.7901 28.7296 24.1556 28.7296 24.1812C28.7296 24.18 28.7223 28.5687 27.8314 29.4572Z" fill="black"/>
<path d="M25.6043 22.2081C25.1217 22.2081 24.7293 22.3568 24.4258 22.6566C24.1211 22.9564 23.9688 23.3427 23.9688 23.818V26.2763C23.9688 26.8052 24.1101 27.2183 24.3856 27.5194C24.6622 27.8216 25.0437 27.9703 25.5239 27.9703C26.0601 27.9703 26.4635 27.8289 26.7317 27.5474C27.0034 27.261 27.1363 26.8393 27.1363 26.2763V25.9959H26.0297V26.2458C26.0297 26.5688 25.9919 26.7772 25.9212 26.871C25.8505 26.9661 25.7262 27.0124 25.547 27.0124C25.374 27.0124 25.2545 26.9588 25.1814 26.8466C25.1119 26.7345 25.0754 26.5346 25.0754 26.2458V25.2159H27.1338V23.8193C27.1338 23.3001 27.0022 22.9015 26.739 22.6249C26.4769 22.347 26.0967 22.2081 25.6043 22.2081ZM26.0297 24.3604H25.0778V23.8083C25.0778 23.5792 25.1144 23.4146 25.1887 23.3183C25.2643 23.216 25.3874 23.1684 25.5592 23.1684C25.7225 23.1684 25.8444 23.216 25.9163 23.3183C25.9931 23.4146 26.0309 23.5792 26.0309 23.8083L26.0297 24.3604Z" fill="black"/>
</g>
<defs>
<clipPath id="clip0_308_1104">
<rect width="39" height="39" fill="white"/>
</clipPath>
</defs>
</svg>
