<svg width="40" height="40" viewBox="0 0 40 40" fill="none" xmlns="http://www.w3.org/2000/svg">
<g clip-path="url(#clip0_683_10549)">
<path d="M27.4087 31.8201C25.8487 31.8201 24.4587 31.0801 23.2287 29.5901C21.9987 28.1101 21.3887 26.1501 21.3887 23.7101C21.3887 21.6401 22.5087 18.4701 24.7387 14.2101C26.9787 9.94006 28.6387 7.81006 29.7287 7.81006C30.3387 7.81006 30.6487 8.13006 30.6487 8.76006C30.6487 8.93006 30.0087 10.3101 28.7387 12.9101C27.4587 15.5101 26.8287 17.5501 26.8287 19.0101C26.8287 20.1401 27.5487 21.0701 28.9987 21.7901C30.4387 22.5101 31.4087 23.2601 31.8887 24.0401C32.3687 24.8201 32.6087 25.6701 32.6087 26.5701C32.6087 28.2001 32.1287 29.4901 31.1687 30.4201C30.2087 31.3501 28.9587 31.8201 27.4287 31.8201H27.4087Z" fill="white"/>
<path d="M13.0493 31.8201C11.4893 31.8201 10.0893 31.0801 8.8693 29.5901C7.6393 28.1101 7.0293 26.1501 7.0293 23.7101C7.0293 21.6401 8.1493 18.4701 10.3793 14.2101C12.6093 9.94006 14.2793 7.81006 15.3593 7.81006C15.9693 7.81006 16.2793 8.13006 16.2793 8.76006C16.2793 8.93006 15.6393 10.3101 14.3693 12.9101C13.0893 15.5101 12.4593 17.5501 12.4593 19.0101C12.4593 20.1401 13.1793 21.0701 14.6293 21.7901C16.0693 22.5101 17.0393 23.2601 17.5193 24.0401C17.9993 24.8201 18.2393 25.6701 18.2393 26.5701C18.2393 28.2001 17.7593 29.4901 16.7993 30.4201C15.8393 31.3501 14.5893 31.8201 13.0693 31.8201H13.0493Z" fill="white"/>
</g>
<defs>
<clipPath id="clip0_683_10549">
<rect width="39.62" height="39.62" fill="white"/>
</clipPath>
</defs>
</svg>
